<?xml version="1.0" encoding="utf-8"?>
<!-- Generator: Adobe Illustrator 28.1.0, SVG Export Plug-In . SVG Version: 6.00 Build 0)  -->
<svg version="1.1" id="Ebene_1" xmlns="http://www.w3.org/2000/svg" xmlns:xlink="http://www.w3.org/1999/xlink" x="0px" y="0px"
	 viewBox="0 0 613 606.3" style="enable-background:new 0 0 613 606.3;" xml:space="preserve">
<style type="text/css">
	.st0{fill:none;}
	.st1{fill:#FFCC00;}
	.st2{fill:#669933;}
	.st3{fill:#0099CC;}
	.st4{fill:#CC0000;}
	.st5{fill:#FF9900;}
</style>
<g>
	<path class="st0" d="M63,134.4v-1l-0.1,1C62.9,134.4,62.9,134.4,63,134.4z"/>
	<path class="st1" d="M393.5,443.5c-8.7-23.2-18.3-48.5-29.3-77.1c-11.4-5.6-22-10.8-31.5-15.5l-2.7-1.3l-2.1-1l-9.3-4.6l-10.6,9.3
		c4.4,8,9.2,16.8,14.3,26.1l3.7,6.7c34.9,63.3,63.1,112.8,83.7,147.1c13.4,22.2,23.7,38.2,30.2,46.6c-2.1-9.2-6.6-24.5-13.2-43.9
		C418.8,512.2,407.6,481.1,393.5,443.5z"/>
	<path class="st1" d="M171.2,30.6c-1.9,4.1-2.9,9.5-2.9,16.2c-0.1,27.9,17.9,78.3,51.9,145.7l2.3,4.6l0.7,1.3
		c18.5,11.6,38.1,24.5,59.9,39.3l2.4,1.6l2.5,1.7c6.4,4.4,12.3,8.4,17.6,12.1c3.3-3.9,6.8-7.9,10.5-12.2
		c-8.4-22.1-16.2-41.8-23.7-60.1c-1.3-3.1-2.6-6.3-4-9.5c-21.8-51.7-41.8-90.7-59.4-115.9c-15.5-22.6-30.2-35-41.1-35l-0.3,0
		c-2.6,0-5,0.6-7.3,1.8l-0.1,0l-0.3,0.1C175.9,23.9,173.2,26.6,171.2,30.6z"/>
	<path class="st2" d="M62.8,135.4c-10.5,0.1-16.9,3.1-20.3,9.5l0,0l-0.1,0.2c-1.7,2.7-2.6,5.5-2.6,8.6c-0.2,11.2,11.7,27,33.3,44.6
		c18.8,15.3,45.4,32.8,79.4,51.9c8.2,4.6,17,9.4,26.3,14.4c21.9-1.1,45.3-1.8,71.6-2.1l2.3,0l3.6,0c8.4-0.1,16.3-0.1,23.1-0.2l4.4,0
		l0.8,0c5,0,9.4,0,13.1-0.1l1.6-1.9l0.1-0.1c-4.5-3.1-9.2-6.4-14.4-9.9l-2.6-1.8l-2.3-1.6c-20-13.7-38-25.5-54.9-36.3
		c-2.8-1.8-5.5-3.5-8.3-5.3l-0.3-0.2c-4.1-2.5-8.2-5.1-12.3-7.6c-46-28.3-107.9-62-141.3-62v-1c0,0-0.1,0-0.1,0L62.8,135.4z"/>
	<path class="st2" d="M546.9,430.1c-19.1-14.4-46.4-33.7-80.9-57.6c-22.7-15.7-48-32.9-75.2-51.1c-12.5,1.9-24.2,3.8-34.7,5.3
		l-3.1,0.5l-2.1,0.3l-6.4,1l-5.2,0.8l-4.8,0.7l-2.4,2.1l-5.9,5.2c1.6,0.8,3.2,1.6,4.9,2.4l2.2,1.1l2.6,1.3c8.5,4.2,18,8.9,28.2,13.9
		l3.6,1.8l3.3,1.6c68.2,33.4,157.7,76.3,196.4,90.5c2.9,1.1,5.6,2,8,2.8c-0.8-0.7-1.6-1.4-2.5-2.2
		C566.8,445.4,558.2,438.6,546.9,430.1z"/>
	<path class="st3" d="M613,271.1c-5.3-0.7-12.8-1.3-22.2-1.8c-18.6-0.9-44.9-1.4-78.2-1.4l-1.7,0c-29.7,0-65.3,0.4-105.9,1.1
		c-10.8,9.6-22.2,19.7-35,30.6l-1.4,1.2l-2.7,2.3c-4.9,4.2-9.4,8-13.5,11.5l-3.1,2.6l-1.1,0.9l-0.7,0.6l0.6-0.1l5.3-0.8
		c9.4-1.4,19.9-3.1,31-4.8l3.3-0.5l4.3-0.7c25.8-4,50-7.9,71.9-11.6C519.4,291.2,588.2,279,613,271.1z"/>
	<path class="st3" d="M289.8,271.4l-1.3,0l-4.4,0c-1.6,0-3.3,0-5,0l-1.9,0c-5.5,0-11.6,0.1-18.1,0.2c-1.9,0-3.9,0-5.9,0.1
		c-23.8,0.3-45.3,0.9-65.8,1.8c-2.6,0.1-5.3,0.2-7.9,0.4l-2.3,0.1c-43.3,2.2-79.2,6-106.9,11.2c-28.7,5.4-49.7,12.7-60.6,21.2
		c-6.5,5-9.6,10.2-9.6,16c0,0.7,0.1,1.4,0.1,2.2l0,0.1l0,0.3c0.2,4.6,2,8.2,5.6,11.6c3.6,3.4,9.2,6.3,16.4,8.6
		c13.7,4.3,33.5,6.6,58.9,6.6c38.2,0,87.5-4.7,151-14.4c8.5-9.8,34.9-39.7,34.9-39.7l3.2-3.6l1.3-1.4l1.6-1.8l2.5-2.8
		C275.5,287.8,286.4,275.4,289.8,271.4z"/>
	<path class="st4" d="M198,436.6c20.1-17.2,42.3-36.3,67.8-58.6l2.2-1.9l3.6-3.1c9.5-8.3,18.3-16,26-22.8l1.9-1.7l2-1.8l10.3-9.1
		c1.5-1.3,2.9-2.6,4.2-3.7l0.8-0.7l5.7-5l1.5-1.3l1.8-1.6c1.1-1,2.5-2.2,4-3.5l2.5-2.2l1.6-1.4l5.2-4.4l1.5-1.3l1-0.8l1.9-1.6l2.4-2
		l1.8-1.5c3.4-2.9,7.1-6.1,11-9.4l1.2-1.1l2.9-2.5c11.2-9.6,21.9-19,32-27.9l1-0.9l4.9-4.4c47-42.2,81.8-77.8,103.4-105.8
		c17.7-22.8,27-41.5,26.9-53.8c0-5.5-1.7-9.6-5.3-12.9l-0.1-0.1l-0.1-0.1c-3.4-3.7-7.5-5.3-13-5.4h-0.2c-12.4,0-30.9,9.3-53.6,26.9
		c-19.4,14.9-42.5,36.2-68.5,63.2c-5,5.2-10.1,10.6-15.7,16.6c-2.3,2.5-4.7,5-7,7.5c-13.1,14.3-26.9,29.7-41.9,47.2l-2.1,2.4
		l-1.8,2.1c-3.6,4.2-7,8.2-10.2,12l-3.4,4l-1.1,1.3l-0.6,0.7l-3.9,4.6l-1,1.2c-5.8,6.8-10.3,12.1-13.5,15.7l-4.2,4.8l-0.3,0.4
		l-3.1,3.6l-2.7,3.1l-0.2,0.2l-0.4,0.4l-1.9,2.2l-1.7,1.9c-2,2.3-4.2,4.7-6.5,7.4l-3.6,4.1c-6.2,7.1-13.2,15-20.8,23.7l-1.9,2.1
		l-3.5,3.9c-49.7,56.9-88,101.9-113.7,133.8c-16,19.9-27.3,34.8-33,43.6c1.3-0.8,2.7-1.8,4.3-2.8c6.7-4.6,15.8-11.4,26.8-20.1
		C140.8,484.8,166.4,463.5,198,436.6z"/>
	<path class="st5" d="M327,38.2c-8.7,22-16.7,53.3-23.6,93c-2.1,11.8-4.1,24.7-6,38.2c8.1,19.1,16.3,39.9,25.3,63.4
		c15.7-18.1,30-34.1,43.7-48.8c11.8-55,17.7-98.5,17.7-129.3c0-16.9-1.8-30.1-5.3-39.3c-3.6-9.3-8.6-14.1-15.6-15l-0.1,0l-0.2,0
		c-1.2-0.3-2.4-0.4-3.6-0.4c-5.7,0-11.1,3.1-16.6,9.6C337.4,16,332,25.7,327,38.2z"/>
	<path class="st5" d="M293.8,478.2c7-26.8,14.6-57.1,22.8-90.1c-5.6-10.2-10.9-19.9-15.7-28.6c-8,7.1-17.1,15-26.9,23.6
		c-8.2,76.2-17.8,175.2-17.8,215.6c0,2.8,0,5.4,0.1,7.6c0.2-0.6,0.5-1.1,0.7-1.7c2.7-6.9,6.2-17.1,10.3-30.4
		C274.3,551.3,283.2,519,293.8,478.2z"/>
</g>
</svg>
